<?xml version="1.0" encoding="UTF-8" standalone="no"?>
<svg width="774px" height="704px" viewBox="0 0 774 704" version="1.1" xmlns="http://www.w3.org/2000/svg" xmlns:xlink="http://www.w3.org/1999/xlink">
    <!-- Generator: Sketch 41.1 (35376) - http://www.bohemiancoding.com/sketch -->
    <title>bull</title>
    <desc>Created with Sketch.</desc>
    <defs></defs>
    <g id="Page-1" stroke="none" stroke-width="1" fill="none" fill-rule="evenodd">
        <g id="Artboard">
            <g id="bull">
                <g id="Head" transform="translate(292.000000, 0.000000)">
                    <polygon id="Path-669" fill="#800896" points="284.649254 446.861833 248.067164 430.48974 267.320896 421.822161"></polygon>
                    <polygon id="Path-689" fill="#970D90" points="185.492537 291.808482 224.33639 251.994445 195.119403 239.80301"></polygon>
                    <polygon id="Path-458" fill="#8D0F94" points="281.761194 288.919289 288.5 279.288646 285.61194 260.990424 260.58209 265.805746"></polygon>
                    <polygon id="Path-459" fill="#800E88" points="275.985075 307.21751 281.761194 288.919289 260.58209 265.805746"></polygon>
                    <polygon id="Path-2" fill="#B20FC9" points="185.378754 291.838637 224.240611 251.915727 260.718651 265.867798"></polygon>
                    <polygon id="Path-389" fill="#760975" points="160.462687 218.615595 138.320896 217.652531 152.761194 201.280438"></polygon>
                    <polygon id="Path-390" fill="#770188" points="152.761194 201.280438 138.320896 217.652531 126.768657 222.467852 118.104478 192.612859"></polygon>
                    <polygon id="Path-391" fill="#810A91" points="160.462687 218.615595 166.238806 229.209302 185.492537 216.689466"></polygon>
                    <polygon id="Path-392" fill="#920B8E" points="185.492537 216.689466 160.462687 218.615595 152.761194 201.280438 166.238806 187.797538"></polygon>
                    <polygon id="Path-393" fill="#7C0988" points="166.238806 229.209302 185.492537 216.689466 195.119403 239.80301"></polygon>
                    <polygon id="Path-426" fill="#640A63" points="167.201493 187.797538 152.761194 201.280438 118.104478 192.612859 124.843284 165.647059"></polygon>
                    <polygon id="Path-463" fill="#8D0F94" points="294.276119 236.913817 307.753731 223.430917 298.126866 204.169631 272.134328 228.246238"></polygon>
                    <polygon id="Path-465" fill="#800E88" points="343.373134 218.615595 307.753731 223.430917 298.126866 204.169631 355.88806 199.354309"></polygon>
                    <polygon id="Path-604" fill="#32033E" points="391.507463 180.093023 391.507463 157.942544 368.402985 156.016416 312.567164 169.499316"></polygon>
                    <polygon id="Path-605" fill="#2B0534" points="368.402985 156.016416 312.567164 169.499316 279.835821 153.127223 277.910448 137.718194 291.38806 135.792066 316.41791 146.385773"></polygon>
                    <polygon id="Path-606" fill="#390745" points="277.910448 137.718194 279.835821 153.127223 249.029851 143.49658"></polygon>
                    <polygon id="Path-607" fill="#612562" points="368.402985 156.016416 316.41791 146.385773 291.38806 135.792066 288.5 129.050616 329.895522 146.385773"></polygon>
                    <polygon id="Path-608" fill="#912F93" points="288.5 129.050616 291.38806 135.792066 277.910448 137.718194 249.029851 143.49658 259.619403 124.235294"></polygon>
                    <polygon id="Path-609" fill="#A535A7" points="259.619403 124.235294 249.029851 143.49658 239.402985 130.01368"></polygon>
                    <polygon id="Path-610" fill="#912F93" points="249.029851 143.49658 239.402985 130.01368 231.701493 137.718194 237.477612 142.533516"></polygon>
                    <polygon id="Path-611" fill="#912F93" points="124.843284 165.647059 172.014925 145.422709 144.097015 136.75513"></polygon>
                    <polygon id="Path-612" fill="#A535A7" points="172.014925 145.422709 144.097015 136.75513 166.238806 118.456908"></polygon>
                    <polygon id="Path-613" fill="#B529B8" points="172.014925 145.422709 200.895522 138.681259 166.238806 118.456908"></polygon>
                    <polygon id="Path-614" fill="#CB2DCE" points="185.492537 112.678523 166.238806 118.456908 200.895522 138.681259"></polygon>
                    <polygon id="Path-615" fill="#C327C7" points="203.783582 118.456908 185.492537 112.678523 200.895522 138.681259"></polygon>
                    <polygon id="Path-616" fill="#B529B8" points="203.783582 118.456908 200.895522 138.681259 223.037313 129.050616"></polygon>
                    <polygon id="Path-617" fill="#A72AA9" points="200.895522 138.681259 223.037313 129.050616 237.477612 142.533516"></polygon>
                    <polygon id="Path-536" fill="#650873" points="166.238806 187.797538 199.932836 181.056088 200.895522 138.681259 172.014925 145.422709 124.843284 165.647059"></polygon>
                    <polygon id="Path-691" fill="#8F0D97" points="166.238806 187.797538 185.492537 216.689466 199.932836 181.056088"></polygon>
                    <polygon id="Path-692" fill="#A407B4" points="224.382636 252.086937 250.955224 216.689466 273.097015 228.246238 260.58209 265.805746"></polygon>
                    <polygon id="Path-693" fill="#860D82" points="298.126866 205.132695 277.910448 191.649795 249.992537 217.652531 274.059701 229.209302"></polygon>
                    <polygon id="Path-694" fill="#62056A" points="277.910448 191.649795 238.440299 172.388509 249.029851 143.49658 280.798507 153.127223"></polygon>
                    <polygon id="Path-695" fill="#780885" points="199.932836 181.056088 238.440299 172.388509 249.029851 143.49658 200.895522 138.681259"></polygon>
                    <polygon id="Path-696" fill="#720770" points="249.992537 217.652531 238.440299 171.425445 277.910448 191.649795"></polygon>
                    <polygon id="Path-697" fill="#970D94" points="313.529851 170.46238 298.126866 204.169631 355.88806 199.354309"></polygon>
                    <polygon id="Path-698" fill="#7E0885" points="280.798507 153.127223 313.529851 170.46238 298.126866 205.132695 277.910448 191.649795"></polygon>
                    <polygon id="Path-690" fill="#7E0585" points="199.626193 180.670447 224.33639 252.040691 195.119403 239.80301 185.492537 216.689466"></polygon>
                    <polygon id="Path-2" fill="#900D97" points="199.371728 181.179377 238.861857 172 251.028208 219.094725 224.563804 252.938625"></polygon>
                    <polygon id="Path-388" fill="#8D0F94" points="157.574627 312.995896 144.097015 293.73461 137.358209 278.325581 124.843284 243.655267 121.955224 235.950752 126.768657 222.467852 138.320896 217.652531 160.462687 218.615595 166.238806 229.209302 167.201493 260.02736 165.276119 277.362517 164.313433 292.771546"></polygon>
                    <polygon id="Path-412" fill="#8D0F94" points="333.137066 265.268667 337.597015 253.28591 329.895522 239.80301 316.41791 240.766074 281.318427 288.767817 275.142368 305.639002 276.347453 308.199807"></polygon>
                    <polygon id="Path-460" fill="#A911BA" points="285.61194 260.990424 288.5 279.288646 316.41791 240.766074 294.276119 236.913817"></polygon>
                    <polygon id="Path-462" fill="#C610D9" points="294.276119 236.913817 307.753731 223.430917 316.41791 240.766074"></polygon>
                    <polygon id="Path-464" fill="#A911B9" points="316.41791 240.766074 329.895522 239.80301 343.373134 218.615595 307.753731 223.430917"></polygon>
                    <polygon id="Path-600" fill="#800E88" points="359.738806 225.357045 343.373134 218.615595 329.895522 239.80301 337.597015 253.28591"></polygon>
                    <polygon id="Path-394" fill="#760E81" points="195.119403 239.80301 166.238806 229.209302 167.201493 260.02736 191.268657 266.76881"></polygon>
                    <polygon id="Path-461" fill="#800E88" points="294.276119 236.913817 285.61194 260.990424 260.58209 265.805746 272.134328 228.246238"></polygon>
                    <polygon id="Path-670" fill="#890896" points="127.731343 425.674419 198.007463 432.415869 176.238288 407.377832 136.395522 417.969904"></polygon>
                    <polygon id="Path-671" fill="#850896" points="198.007463 432.415869 248.067164 430.48974 236.514925 415.080711"></polygon>
                    <polygon id="Path-672" fill="#BB0CCA" points="176.238288 407.443412 223.037313 393.893297 236.514925 415.080711"></polygon>
                    <polygon id="Path-673" fill="#880B8E" points="127.302199 425.436335 162.38806 456.492476 199.369901 431.578469"></polygon>
                    <polygon id="Path-674" fill="#730C79" points="162.38806 456.492476 238.440299 463.233926 198.007463 432.415869"></polygon>
                    <polygon id="Path-675" fill="#730C79" points="240.365672 463.233926 284.649254 446.861833 283.686567 473.827633"></polygon>
                    <polygon id="Path-676" fill="#54075E" points="123.616918 463.722302 163.540788 455.53279 141.208955 476.716826"></polygon>
                    <polygon id="Path-677" fill="#6C0676" points="120.029851 448.787962 162.38806 456.492476 127.731343 425.674419"></polygon>
                    <polygon id="Path-678" fill="#5D0460" points="273.097015 484.421341 251.608856 492.653702 238.884295 462.289137 283.686567 473.827633"></polygon>
                    <polygon id="Path-679" fill="#730C79" points="141.208955 476.716826 175.006104 483.786606 162.38806 456.492476"></polygon>
                    <polygon id="Path-679" fill="#730C79" points="173.940299 483.458276 225.925373 486.347469 162.38806 456.492476"></polygon>
                    <polygon id="Path-680" fill="#730A7F" points="239.402985 463.233926 225.925373 486.347469 251.91791 492.125855"></polygon>
                    <polygon id="Path-682" fill="#A007B4" points="240.365672 363.075239 271.171642 344.777018 254.80597 391.967168"></polygon>
                    <polygon id="Path-683" fill="#A210A1" points="276.947761 306.254446 255.768657 331.294118 271.171642 344.777018 282.723881 327.44186"></polygon>
                    <polygon id="Path-684" fill="#AE0CB9" points="225.925373 356.333789 255.768657 331.294118 271.171642 344.777018 240.365672 363.075239"></polygon>
                    <polygon id="Path-685" fill="#9F07B4" points="260.58209 265.805746 277.067211 307.828909 255.768657 331.294118 238.440299 323.589603"></polygon>
                    <polygon id="Path-686" fill="#A50DAF" points="225.925373 356.333789 238.440299 323.589603 255.768657 331.294118"></polygon>
                    <polygon id="Path-687" fill="#900D97" points="203.783582 350.555404 166.238806 325.515732 185.492537 291.808482"></polygon>
                    <polygon id="Path-688" fill="#B006B4" points="171.052239 381.373461 166.238806 325.515732 203.783582 350.555404"></polygon>
                    <polygon id="Path-700" fill="#861197" points="300.765847 289.411095 276.947761 306.254446 282.742561 327.465149 303.769728 308.438122"></polygon>
                    <polygon id="Path-2" fill="#B20FC9" points="184.929904 291.789506 242.306964 314.182142 260.920451 265.244005"></polygon>
                    <polygon id="Path-2" fill="#B20FC9" points="185.209284 291.37328 203.696411 352 226.377143 357.56256 242.952107 313.797576"></polygon>
                    <polygon id="Path-2" fill="#B20FC9" points="170.659247 381.510446 188.420471 385.598857 226.595527 356.428804 203.667151 350.490832"></polygon>
                    <polygon id="Path-2" fill="#B20FC9" points="223.599905 394.124825 187.743287 385.384153 225.884399 355.983713 240.385968 363.035845"></polygon>
                    <polygon id="Path-2" fill="#B20FC9" points="222.516338 394.142065 255.086188 392.138308 240.372412 362.509105"></polygon>
                    <polygon id="Path-4" fill="#AF08BE" points="135.775658 418.395209 171.118136 381.10122 223.149808 393.965563 176.435027 407.508991"></polygon>
                    <polygon id="Path-4" fill="#AF08BE" points="198.022902 432.597231 237.020376 414.981131 176.103633 407.31611"></polygon>
                    <polygon id="Path-4" fill="#AF08BE" points="255.44332 391.044751 260.553334 406.240318 237.020376 415.922449 222.362705 393.868706"></polygon>
                    <polygon id="Path-4" fill="#AF08BE" points="267.949407 421.973782 260.41886 405.97137 236.751428 415.384553 247.912774 430.849069"></polygon>
                    <polygon id="Path-4" fill="#660968" points="285.296559 446.85148 238.884295 463.92704 197.61948 432.328283 247.912774 430.311172"></polygon>
                    <polygon id="Path-4" fill="#660968" points="239.703247 462.903351 161.698148 456.351741 226.159449 486.622946"></polygon>
                    <polygon id="Path-4" fill="#660968" points="118.907949 447.752754 163.950263 456.044635 123.412181 463.92704"></polygon>
                    <polygon id="Path-422" fill="#7D068C" points="126.768657 492.125855 141.208955 476.716826 142.171642 522.943912"></polygon>
                    <polygon id="Path-425" fill="#4D0160" points="158.537313 526.79617 174.902985 482.495212 141.208955 476.716826 147.775978 507.331452"></polygon>
                    <polygon id="Path-425" fill="#4C0160" points="165.306915 505.872235 173.982415 482.148703 227.214241 486.243459 204.875455 511.445268"></polygon>
                    <polygon id="Path-425" fill="#4C0160" points="157.603392 526.576804 165.481669 505.011376 205.199352 510.773527 180.534025 537.632645"></polygon>
                    <polygon id="Path-425" fill="#4C0160" points="209.100541 540.407446 226.798576 486.490176 180.359455 537.377048"></polygon>
                    <polygon id="Path-425" fill="#4D0160" points="228.338048 531.352637 252.308751 492.093785 226.762552 486.354639 208.688959 540.407446"></polygon>
                    <polygon id="Path-479" fill="#AE09B2" points="142.171642 522.943912 147.947761 506.571819 158.537313 526.79617"></polygon>
                    <polygon id="Path-480" fill="#84009E" points="158.537313 526.79617 157.574627 545.094391 142.171642 522.943912"></polygon>
                    <polygon id="Path-481" fill="#A709B2" points="158.537313 526.79617 157.574627 545.094391 180.679104 537.389877"></polygon>
                    <polygon id="Path-482" fill="#9506A3" points="157.574627 545.094391 180.679104 537.389877 176.828358 557.614227"></polygon>
                    <polygon id="Path-483" fill="#A505A3" points="180.679104 537.389877 176.828358 557.614227 193.19403 559.540356"></polygon>
                    <polygon id="Path-484" fill="#A109B2" points="180.679104 537.389877 193.19403 559.540356 208.597015 540.27907"></polygon>
                    <polygon id="Path-485" fill="#9A05A5" points="208.597015 540.27907 193.19403 559.540356 216.298507 556.651163"></polygon>
                    <polygon id="Path-486" fill="#81048D" points="208.597015 540.27907 227.850746 529.685363 216.298507 556.651163"></polygon>
                    <polygon id="Path-487" fill="#7A0073" points="227.850746 529.685363 216.298507 556.651163 233.626866 546.057456"></polygon>
                    <polygon id="Path-488" fill="#86058E" points="227.850746 529.685363 233.626866 546.057456 256.731343 514.276334"></polygon>
                    <polygon id="Path-489" fill="#760577" points="256.731343 514.276334 251.91791 492.125855 227.850746 529.685363"></polygon>
                    <polygon id="Path-492" fill="#9B00A2" points="256.731343 514.276334 251.91791 492.125855 273.097015 483.458276 275.022388 509.461012"></polygon>
                    <polygon id="Path-493" fill="#7F0F9B" points="273.097015 483.458276 275.022388 509.461012 287.537313 495.978112"></polygon>
                    <polygon id="Path-427" fill="#5C0C5E" points="126.768657 222.467852 121.955224 235.950752 116.179104 239.80301 91.1492537 228.246238 118.104478 192.612859"></polygon>
                    <polygon id="Path-428" fill="#540568" points="118.104478 192.612859 91.1492537 228.246238 54.5671642 208.021888"></polygon>
                    <polygon id="Path-429" fill="#6A0977" points="118.104478 192.612859 54.5671642 208.021888 58.4179104 173.351573"></polygon>
                    <polygon id="Path-430" fill="#4F0063" points="47.8283582 240.766074 37.238806 204.169631 39.1641791 195.502052 54.5671642 208.021888"></polygon>
                    <polygon id="Path-430" fill="#4F0063" points="47.5734041 240.506182 60.3049347 255.823804 77.7113242 220.71263 53.3423789 206.886984"></polygon>
                    <polygon id="Path-434" fill="#68006F" points="54.5671642 208.021888 58.4179104 173.351573 39.1641791 195.502052"></polygon>
                    <polygon id="Path-435" fill="#550E67" points="39.1641791 195.502052 18.9477612 169.499316 58.4179104 173.351573"></polygon>
                    <polygon id="Path-436" fill="#58045E" points="29.5373134 131.939808 5.47014925 130.01368 18.9477612 169.499316"></polygon>
                    <polygon id="Path-437" fill="#640075" points="58.4179104 173.351573 29.5373134 131.939808 56.4925373 149.274966"></polygon>
                    <polygon id="Path-438" fill="#73087A" points="56.4925373 149.274966 29.5373134 131.939808 17.9850746 97.2694938 58.4179104 137.718194"></polygon>
                    <polygon id="Path-439" fill="#CF12DB" points="58.4179104 137.718194 17.9850746 97.2694938 50.7164179 113.641587"></polygon>
                    <polygon id="Path-440" fill="#6E0C75" points="50.7164179 113.641587 17.9850746 97.2694938 39.1641791 50.0793434"></polygon>
                    <polygon id="Path-441" fill="#5F0A65" points="39.1641791 50.0793434 17.9850746 97.2694938 19.9104478 27.9288646"></polygon>
                    <polygon id="Path-442" fill="#7B0A83" points="39.1641791 50.0793434 19.9104478 27.9288646 32.4253731 16.372093"></polygon>
                    <polygon id="Path-443" fill="#990DA3" points="32.4253731 16.372093 19.9104478 27.9288646 21.8358209 0 26.6492537 0"></polygon>
                    <polygon id="Path-444" fill="#7B0A83" points="21.8358209 0 19.9104478 27.9288646 11.2462687 23.1135431"></polygon>
                    <polygon id="Path-445" fill="#850B8E" points="19.9104478 27.9288646 17.9850746 97.2694938 0.656716418 95.3433653 11.2462687 23.1135431"></polygon>
                    <polygon id="Path-446" fill="#5C0C62" points="17.9850746 97.2694938 5.47014925 130.01368 0.656716418 95.3433653"></polygon>
                    <polygon id="Path-447" fill="#7B0A83" points="56.4925373 149.274966 29.5373134 131.939808 58.4179104 173.351573"></polygon>
                    <polygon id="Path-448" fill="#B810C4" points="50.7164179 113.641587 58.4179104 137.718194 63.2313433 137.718194"></polygon>
                    <polygon id="Path-449" fill="#CD20D9" points="58.4179104 137.718194 63.2313433 137.718194 82.4850746 154.090287 78.6343284 159.868673"></polygon>
                    <polygon id="Path-450" fill="#881490" points="78.6343284 159.868673 58.4179104 137.718194 56.4925373 149.274966"></polygon>
                    <polygon id="Path-451" fill="#9608A0" points="56.4925373 149.274966 78.6343284 159.868673 58.4179104 173.351573"></polygon>
                    <polygon id="Path-452" fill="#9D18A6" points="78.6343284 159.868673 82.4850746 154.090287 106.552239 164.683995 106.552239 173.351573"></polygon>
                    <polygon id="Path-453" fill="#CD20D9" points="106.552239 173.351573 106.552239 164.683995 124.843284 165.647059 121.955224 178.166895"></polygon>
                    <polygon id="Path-454" fill="#7F1E98" points="118.104478 192.612859 58.4179104 173.351573 78.6343284 159.868673 106.552239 173.351573"></polygon>
                    <polygon id="Path-455" fill="#9D19A6" points="106.552239 173.351573 118.104478 192.612859 121.955224 178.166895"></polygon>
                    <polygon id="Path-456" fill="#54095C" points="18.9477612 169.499316 29.5373134 131.939808 58.4179104 173.351573"></polygon>
                    <polygon id="Path-457" fill="#4A054F" points="5.47014925 130.01368 17.9850746 97.2694938 29.5373134 131.939808"></polygon>
                    <polygon id="Path-582" fill="#CD20D9" points="404.985075 208.021888 408.835821 192.612859 378.992537 200.317373"></polygon>
                    <polygon id="Path-583" fill="#A011AA" points="408.835821 192.612859 404.985075 208.021888 440.604478 184.908345"></polygon>
                    <polygon id="Path-584" fill="#CD20D9" points="408.835821 192.612859 420.38806 175.277702 440.604478 184.908345"></polygon>
                    <polygon id="Path-585" fill="#A012AA" points="378.992537 200.317373 379.955224 208.021888 404.985075 208.021888"></polygon>
                    <polygon id="Path-586" fill="#CD20D9" points="378.992537 200.317373 355.88806 199.354309 379.955224 208.021888"></polygon>
                    <polygon id="Path-587" fill="#A012AA" points="420.38806 175.277702 437.716418 133.865937 458.895522 137.718194 440.604478 184.908345"></polygon>
                    <polygon id="Path-588" fill="#780E80" points="458.895522 137.718194 437.716418 133.865937 459.858209 56.8207934 467.559701 41.4117647"></polygon>
                    <polygon id="Path-589" fill="#26022E" points="482 143.49658 458.895522 137.718194 467.559701 41.4117647 475.261194 40.4487004"></polygon>
                    <polygon id="Path-590" fill="#33043E" points="440.604478 184.908345 455.044776 228.246238 471.410448 205.132695"></polygon>
                    <polygon id="Path-591" fill="#A012AA" points="379.955224 208.021888 359.738806 225.357045 343.373134 218.615595 355.88806 199.354309"></polygon>
                    <polygon id="Path-592" fill="#800D88" points="359.738806 225.357045 379.955224 208.021888 404.985075 208.021888"></polygon>
                    <polygon id="Path-593" fill="#33043E" points="458.895522 137.718194 482 143.49658 480.074627 174.314637 440.604478 184.908345"></polygon>
                    <polygon id="Path-594" fill="#26022E" points="480.074627 174.314637 440.604478 184.908345 471.410448 205.132695"></polygon>
                    <polygon id="Path-595" fill="#480857" points="440.604478 184.908345 455.044776 228.246238 404.985075 208.021888"></polygon>
                    <polygon id="Path-596" fill="#67167A" points="455.044776 228.246238 404.985075 208.021888 430.014925 246.54446"></polygon>
                    <polygon id="Path-602" fill="#32043D" points="420.38806 175.277702 419.425373 147.348837 437.716418 133.865937"></polygon>
                    <polygon id="Path-603" fill="#26022E" points="419.425373 147.348837 391.507463 157.942544 391.507463 180.093023 420.38806 175.277702"></polygon>
                    <polygon id="Path-382" fill="#B41ABD" points="110.402985 275.436389 107.514925 285.067031 116.179104 277.362517"></polygon>
                    <polygon id="Path-385" fill="#BE17C9" points="122.91791 270.621067 116.179104 277.362517 110.402985 275.436389 118.104478 267.731874"></polygon>
                    <polygon id="Path-386" fill="#8D0683" points="137.358209 278.325581 118.104478 267.731874 115.216418 254.248974 116.179104 239.80301 124.843284 243.655267"></polygon>
                    <polygon id="Path-387" fill="#BE0EA9" points="116.179104 239.80301 121.955224 235.950752 124.843284 243.655267"></polygon>
                    <polygon id="Path-408" fill="#CD20D9" points="282.742561 327.465149 303.769728 308.438122 307.774903 319.45377"></polygon>
                    <polygon id="Path-419" fill="#B309BF" points="109.440299 472.864569 105.589552 453.603283 120.029851 448.787962 123.880597 463.233926"></polygon>
                    <polygon id="Path-505" fill="#8E1AB6" points="105.589552 453.603283 120.029851 448.787962 107.514925 435.305062"></polygon>
                    <polygon id="Path-506" fill="#7907A1" points="107.514925 435.305062 94.0373134 440.120383 105.589552 453.603283"></polygon>
                    <polygon id="Path-507" fill="#8B0CB3" points="107.514925 435.305062 95.9626866 419.896033 94.0373134 440.120383"></polygon>
                    <polygon id="Path-508" fill="#8D00A3" points="107.514925 435.305062 116.179104 416.043776 127.731343 425.674419"></polygon>
                    <polygon id="Path-509" fill="#A70DB3" points="127.731343 425.674419 120.029851 448.787962 107.514925 435.305062"></polygon>
                    <polygon id="Path-510" fill="#76058E" points="107.514925 435.305062 95.9626866 419.896033 116.179104 416.043776"></polygon>
                    <polygon id="Path-511" fill="#9200A5" points="95.9626866 419.896033 116.179104 416.043776 111.365672 379.447332"></polygon>
                    <polygon id="Path-512" fill="#99038F" points="116.179104 416.043776 127.731343 425.674419 130.619403 402.560876"></polygon>
                    <polygon id="Path-514" fill="#860D97" points="136.395522 417.969904 146.985075 408.339261 143.134328 391.967168 130.619403 402.560876"></polygon>
                    <polygon id="Path-517" fill="#74057E" points="155.649254 383.29959 171.052239 381.373461 146.985075 408.339261"></polygon>
                    <polygon id="Path-556" fill="#900D97" points="269.335152 348.762075 254.329008 392.461284 304.95413 372.178255"></polygon>
                    <polygon id="Path-556" fill="#900D97" points="282.723881 327.44186 268.283582 348.629275 303.902985 371.742818"></polygon>
                    <polygon id="Path-559" fill="#8A159F" points="282.723881 398.708618 267.320896 421.822161 284.649254 427.600547 287.537313 410.26539"></polygon>
                    <polygon id="Path-410" fill="#CD20D9" points="327.007463 318.774282 333.746269 311.069767 333.746269 299.512996 327.007463 302.402189"></polygon>
                    <polygon id="Path-411" fill="#BE16CA" points="333.746269 299.512996 327.007463 302.402189 328.932836 286.030096"></polygon>
                    <polygon id="Path-619" fill="#7E0E88" points="307.774902 319.45377 282.723881 327.44186 303.902985 372.705882"></polygon>
                    <polygon id="Path-699" fill="#AD02B8" points="303.769728 308.438122 300.052239 289.882353 332.807246 264.375533 328.80207 286.406828"></polygon>
                    <polygon id="Path-597" fill="#721B87" points="430.014925 246.54446 404.985075 208.021888 356.850746 260.990424"></polygon>
                    <polygon id="Path-598" fill="#67177A" points="404.985075 208.021888 357.813433 260.02736 359.738806 225.357045"></polygon>
                    <polygon id="Path-395" fill="#810988" points="191.268657 266.76881 167.201493 260.02736 165.276119 278.325581 185.492537 291.808482"></polygon>
                    <polygon id="Path-396" fill="#7B0E81" points="185.635034 291.872187 164.313433 292.771546 165.276119 278.325581"></polygon>
                    <polygon id="Path-397" fill="#7A0988" points="185.744681 291.770119 164.313433 292.771546 170.089552 303.365253"></polygon>
                    <polygon id="Path-521" fill="#A012AA" points="155.649254 383.29959 140.246269 384.262654 156.61194 357.296854 171.052239 381.373461"></polygon>
                    <polygon id="Path-3" fill="#740C79" points="166.102569 325.690313 170.021919 302.865862 185.490995 291.824174 166.563669 325.536613"></polygon>
                    <polygon id="Path-520" fill="#890399" points="140.246269 384.262654 120.992537 357.296854 156.61194 357.296854"></polygon>
                    <polygon id="Path-522" fill="#840E88" points="156.61194 357.296854 120.992537 357.296854 157.574627 312.995896 166.238806 325.515732"></polygon>
                    <polygon id="Path-384" fill="#AA1279" points="116.179104 277.362517 122.91791 270.621067 137.358209 278.325581 144.097015 293.73461 115.216418 292.771546"></polygon>
                    <polygon id="Path-399" fill="#A413B1" points="144.097015 293.73461 115.216418 292.771546 157.574627 312.995896"></polygon>
                    <polygon id="Path-401" fill="#7F005E" points="105.589552 300.47606 107.514925 285.067031 115.216418 292.771546"></polygon>
                    <polygon id="Path-383" fill="#CD20D9" points="115.216418 292.771546 107.514925 285.067031 116.179104 277.362517"></polygon>
                    <polygon id="Path-400" fill="#970D90" points="157.574627 312.995896 120.992537 357.296854 105.589552 300.47606 115.216418 292.771546"></polygon>
                    <polygon id="Path-515" fill="#9600A2" points="143.134328 391.967168 155.649254 383.29959 146.985075 408.339261"></polygon>
                    <polygon id="Path-516" fill="#7E056E" points="143.134328 391.967168 140.246269 384.262654 155.649254 383.29959"></polygon>
                    <polygon id="Path-518" fill="#7E056E" points="130.619403 402.560876 131.58209 392.930233 140.246269 384.262654 143.134328 391.967168"></polygon>
                    <polygon id="Path-519" fill="#570245" points="116.179104 416.043776 130.619403 402.560876 131.58209 392.930233 140.246269 384.262654 120.992537 357.296854 111.365672 379.447332"></polygon>
                    <polygon id="Path-398" fill="#7B0E81" points="170.089552 303.365253 166.238806 326.478796 157.574627 312.995896 164.313433 292.771546"></polygon>
                    <polygon id="Path-513" fill="#A100A3" points="130.619403 402.560876 127.731343 425.674419 136.395522 417.969904"></polygon>
                    <polygon id="Path-523" fill="#970D93" points="166.238806 325.515732 156.61194 357.296854 171.052239 381.373461"></polygon>
                    <polygon id="Path-421" fill="#890595" points="123.880597 463.233926 141.208955 476.716826 126.768657 492.125855"></polygon>
                    <polygon id="Path-424" fill="#650876" points="141.208955 476.716826 142.171642 522.943912 147.947761 507.534884"></polygon>
                    <polygon id="Path-498" fill="#8908A8" points="287.537313 495.978112 273.097015 483.458276 283.686567 473.827633"></polygon>
                    <polygon id="Path-499" fill="#971BBA" points="283.686567 473.827633 294.276119 474.790698 287.537313 495.978112"></polygon>
                    <polygon id="Path-502" fill="#81078F" points="283.686567 473.827633 294.276119 474.790698 295.238806 450.71409 283.686567 446.861833"></polygon>
                    <polygon id="Path-409" fill="#AA128A" points="307.753731 319.737346 327.007463 318.774282 327.007463 302.402189 328.932836 286.030096 303.769728 308.438123"></polygon>
                    <polygon id="Path-555" fill="#8D0F94" points="307.753731 319.737346 327.007463 318.774282 329.895522 340.924761 303.902985 372.705882"></polygon>
                    <polygon id="Path-561" fill="#530344" points="287.537313 410.26539 284.649254 426.637483 295.238806 450.71409 309.679104 398.708618"></polygon>
                    <polygon id="Path-562" fill="#5D0A5F" points="303.902985 371.742818 282.723881 398.708618 287.537313 410.26539 309.679104 398.708618"></polygon>
                    <polygon id="Path-563" fill="#6D0977" points="303.902985 371.742818 329.895522 340.924761 324.119403 390.04104"></polygon>
                    <polygon id="Path-564" fill="#590B69" points="324.119403 390.04104 309.679104 398.708618 303.902985 371.742818"></polygon>
                    <polygon id="Path-565" fill="#82098B" points="294.276119 474.790698 295.238806 450.71409 309.679104 398.708618 324.119403 390.04104 313.529851 435.305062"></polygon>
                    <polygon id="Path-503" fill="#750E89" points="295.238806 450.71409 283.686567 446.861833 284.649254 426.637483"></polygon>
                    <polygon id="Path-556" fill="#900D97" points="254.80597 391.967168 282.723881 398.708618 303.902985 371.742818"></polygon>
                    <polygon id="Path-557" fill="#9A12AA" points="254.80597 391.967168 282.723881 398.708618 258.656716 402.560876"></polygon>
                    <polygon id="Path-558" fill="#70057E" points="258.656716 402.560876 267.320896 421.822161 282.723881 398.708618"></polygon>
                    <polygon id="Path-560" fill="#6E057E" points="284.649254 426.637483 267.320896 421.822161 284.649254 446.861833"></polygon>
                </g>
                <g id="Legs" transform="translate(0.000000, 326.000000)">
                    <polygon id="Path-566" fill="#660B71" points="586.276119 148.790698 605.529851 109.305062 619.970149 117.97264 602.641791 140.123119"></polygon>
                    <polygon id="Path-279" fill="#5C1E67" points="0 365.480164 10.5895522 328.883721 26.9552239 300.954856 45.2462687 325.031464 24.0671642 371.25855"></polygon>
                    <polygon id="Path-280" fill="#8E16A3" points="53.9104478 325.031464 45.2462687 325.031464 24.0671642 371.25855 46.2089552 372.221614"></polygon>
                    <polygon id="Path-286" fill="#5C1E67" points="92.4179104 318.290014 53.9104478 325.031464 46.2089552 372.221614 68.3507463 365.480164"></polygon>
                    <polygon id="Path-47" fill="#AD0DCA" points="50.0597015 301.917921 45.2462687 325.031464 53.9104478 325.031464"></polygon>
                    <polygon id="Path-56" fill="#8C0AA3" points="26.9552239 300.954856 50.0597015 301.917921 45.2462687 325.031464"></polygon>
                    <polygon id="Path-265" fill="#920CAA" points="50.0597015 301.917921 53.9104478 325.031464 76.0522388 306.733242"></polygon>
                    <polygon id="Path-288" fill="#4C1057" points="76.0522388 306.733242 53.9104478 325.031464 92.4179104 318.290014 91.4552239 309.622435"></polygon>
                    <polygon id="Path-289" fill="#4E1658" points="76.0522388 306.733242 93.380597 286.508892 91.4552239 309.622435"></polygon>
                    <polygon id="Path-290" fill="#880C9E" points="76.0522388 306.733242 79.9029851 275.915185 93.380597 286.508892"></polygon>
                    <polygon id="Path-291" fill="#BB15C7" points="79.9029851 275.915185 50.0597015 301.917921 76.0522388 306.733242"></polygon>
                    <polygon id="Path-294" fill="#CC23EA" points="50.0597015 301.917921 79.9029851 275.915185 62.5746269 279.767442 44.2835821 287.471956 26.9552239 300.954856"></polygon>
                    <polygon id="Path-295" fill="#3F1147" points="92.4179104 318.290014 68.3507463 365.480164 93.380597 367.406293"></polygon>
                    <polygon id="Path-296" fill="#3F1147" points="93.380597 367.406293 136.701493 357.77565 134.776119 334.662107"></polygon>
                    <polygon id="Path-297" fill="#440C48" points="92.4179104 318.290014 93.380597 367.406293 134.776119 334.662107 135.738806 314.437756 120.335821 298.065663"></polygon>
                    <polygon id="Path-298" fill="#6E1F7C" points="91.4552239 309.622435 120.335821 298.065663 93.380597 286.508892"></polygon>
                    <polygon id="Path-299" fill="#5C1E67" points="120.335821 298.065663 92.4179104 318.290014 91.4552239 309.622435"></polygon>
                    <polygon id="Path-300" fill="#6E1F7C" points="79.9029851 275.915185 93.380597 286.508892 80.8656716 264.358413"></polygon>
                    <polygon id="Path-301" fill="#7D178F" points="120.335821 298.065663 132.850746 238.355677 97.2313433 270.136799 93.380597 286.508892"></polygon>
                    <polygon id="Path-303" fill="#5F136D" points="97.2313433 270.136799 93.380597 286.508892 80.8656716 264.358413"></polygon>
                    <polygon id="Path-304" fill="#CF12DB" points="132.850746 238.355677 97.2313433 270.136799 80.8656716 264.358413 126.11194 221.983584"></polygon>
                    <polygon id="Path-305" fill="#721183" points="135.738806 314.437756 120.335821 298.065663 132.850746 238.355677"></polygon>
                    <polygon id="Path-306" fill="#440C48" points="135.738806 314.437756 153.067164 306.733242 160.768657 299.028728 166.544776 284.582763 169.432836 272.062927 132.850746 238.355677"></polygon>
                    <polygon id="Path-307" fill="#580F5E" points="188.686567 232.577291 132.850746 238.355677 169.432836 272.062927"></polygon>
                    <polygon id="Path-308" fill="#600D6F" points="132.850746 238.355677 188.686567 232.577291 170.395522 177.682627"></polygon>
                    <polygon id="Path-309" fill="#4E075B" points="170.395522 177.682627 188.686567 232.577291 215.641791 197.906977 192.537313 162.273598"></polygon>
                    <polygon id="Path-315" fill="#B50FBF" points="170.395522 177.682627 132.850746 238.355677 126.11194 221.983584 163.656716 143.012312"></polygon>
                    <polygon id="Path-332" fill="#800E94" points="163.656716 143.012312 170.395522 177.682627 181.947761 144.93844"></polygon>
                    <polygon id="Path-333" fill="#801394" points="170.395522 177.682627 181.947761 144.93844 206.977612 127.603283 192.537313 162.273598"></polygon>
                    <polygon id="Path-334" fill="#570964" points="206.977612 127.603283 192.537313 162.273598 215.641791 197.906977"></polygon>
                    <polygon id="Path-335" fill="#440C48" points="215.641791 197.906977 206.977612 127.603283 269.552239 153.606019 236.820896 177.682627"></polygon>
                    <polygon id="Path-336" fill="#560E63" points="246.447761 112.194254 206.977612 127.603283 269.552239 153.606019"></polygon>
                    <polygon id="Path-338" fill="#460851" points="268.589552 109.305062 246.447761 112.194254 269.552239 153.606019"></polygon>
                    <polygon id="Path-339" fill="#721283" points="246.447761 112.194254 229.119403 92.9329685 206.977612 127.603283"></polygon>
                    <polygon id="Path-340" fill="#5C0D6A" points="268.589552 109.305062 246.447761 112.194254 254.149254 91.0068399 275.328358 80.4131327"></polygon>
                    <polygon id="Path-341" fill="#520C5F" points="229.119403 92.9329685 246.447761 112.194254 254.149254 91.0068399"></polygon>
                    <polygon id="Path-342" fill="#721283" points="229.119403 92.9329685 247.410448 65.004104 254.149254 91.0068399"></polygon>
                    <polygon id="Path-343" fill="#8E1296" points="275.328358 80.4131327 254.149254 91.0068399 247.410448 65.004104"></polygon>
                    <polygon id="Path-344" fill="#9A1EB0" points="206.977612 127.603283 203.126866 115.083447 242.597015 39.001368 247.410448 65.004104"></polygon>
                    <polygon id="Path-345" fill="#721283" points="181.947761 144.93844 203.126866 115.083447 206.977612 127.603283"></polygon>
                    <polygon id="Path-346" fill="#AF11CC" points="163.656716 143.012312 181.947761 144.93844 203.126866 115.083447 194.462687 106.415869"></polygon>
                    <polygon id="Path-347" fill="#BD14DA" points="242.597015 39.001368 203.126866 115.083447 206.014925 90.0437756 229.119403 43.8166895"></polygon>
                    <polygon id="Path-348" fill="#9A1EB0" points="296.507463 56.3365253 281.104478 21.6662107 307.097015 27.4445964"></polygon>
                    <polygon id="Path-349" fill="#610B70" points="296.507463 56.3365253 289.768657 89.0807114 275.328358 80.4131327 281.104478 21.6662107"></polygon>
                    <polygon id="Path-350" fill="#4C0659" points="289.768657 89.0807114 301.320896 87.1545828 296.507463 56.3365253"></polygon>
                    <polygon id="Path-351" fill="#520D5F" points="247.410448 65.004104 281.104478 21.6662107 275.328358 80.4131327"></polygon>
                    <polygon id="Path-352" fill="#801493" points="247.410448 65.004104 242.597015 39.001368 281.104478 21.6662107"></polygon>
                    <polygon id="Path-353" fill="#A31BBB" points="260.88806 12.0355677 281.104478 21.6662107 242.597015 39.001368"></polygon>
                    <polygon id="Path-354" fill="#721283" points="260.88806 12.0355677 242.597015 39.001368 229.119403 43.8166895 239.708955 0.47879617"></polygon>
                    <polygon id="Path-355" fill="#801493" points="229.119403 44.7797538 215.641791 27.4445964 239.708955 0.47879617"></polygon>
                    <polygon id="Path-356" fill="#721283" points="215.641791 27.4445964 229.119403 43.8166895 206.014925 90.0437756"></polygon>
                    <polygon id="Path-357" fill="#9120A6" points="215.641791 27.4445964 206.014925 90.0437756 184.835821 100.637483"></polygon>
                    <polygon id="Path-358" fill="#721283" points="194.462687 106.415869 176.171642 128.566347 184.835821 100.637483"></polygon>
                    <polygon id="Path-359" fill="#560E63" points="269.552239 153.606019 296.507463 132.418605 268.589552 109.305062"></polygon>
                    <polygon id="Path-360" fill="#6F0781" points="268.589552 109.305062 289.768657 89.0807114 275.328358 80.4131327"></polygon>
                    <polygon id="Path-361" fill="#490356" points="289.768657 89.0807114 268.589552 109.305062 296.507463 132.418605"></polygon>
                    <polygon id="Path-362" fill="#560E63" points="289.768657 89.0807114 296.507463 132.418605 301.320896 87.1545828"></polygon>
                    <polygon id="Path-363" fill="#9A1EB0" points="194.462687 106.415869 184.835821 100.637483 206.014925 90.0437756"></polygon>
                    <polygon id="Path-364" fill="#9A1EB0" points="194.462687 106.415869 206.014925 90.0437756 203.126866 115.083447"></polygon>
                </g>
                <g id="Body" transform="translate(239.000000, 220.000000)">
                    <polygon id="Path-365" fill="#8D13A3" points="57.5074627 238.418605 62.3208955 193.154583 112.380597 190.26539 126.820896 231.677155"></polygon>
                    <polygon id="Path-366" fill="#6B097D" points="57.5074627 238.418605 71.9477612 256.716826 112.380597 246.123119 126.820896 231.677155"></polygon>
                    <polygon id="Path-367" fill="#681079" points="112.380597 190.26539 62.3208955 193.154583 57.5074627 162.336525 101.791045 158.484268"></polygon>
                    <polygon id="Path-368" fill="#7A1A8B" points="126.820896 231.677155 112.380597 190.26539 132.597015 177.745554 147.037313 220.120383"></polygon>
                    <polygon id="Path-369" fill="#600D6E" points="101.791045 158.484268 112.380597 190.26539 132.597015 177.745554 108.529851 132.481532"></polygon>
                    <polygon id="Path-370" fill="#991AB0" points="57.5074627 162.336525 68.0970149 133.444596 108.529851 132.481532 101.791045 158.484268"></polygon>
                    <polygon id="Path-371" fill="#8F12A6" points="109.492537 85.2913817 108.529851 132.481532 68.0970149 133.444596 54.619403 93.9589603"></polygon>
                    <polygon id="Path-372" fill="#721283" points="42.1044776 127.666211 43.0671642 95.8850889 54.619403 93.9589603 68.0970149 133.444596"></polygon>
                    <polygon id="Path-373" fill="#9A1EB0" points="43.0671642 95.8850889 42.1044776 127.666211 21.8880597 118.035568"></polygon>
                    <polygon id="Path-374" fill="#9A18B1" points="0.708955224 106.478796 26.7014925 80.4760602 21.8880597 118.035568"></polygon>
                    <polygon id="Path-375" fill="#B10ECE" points="21.8880597 118.035568 26.7014925 80.4760602 43.0671642 95.8850889"></polygon>
                    <polygon id="Path-376" fill="#721283" points="43.0671642 95.8850889 26.7014925 80.4760602 41.141791 71.8084815"></polygon>
                    <polygon id="Path-377" fill="#9A18B1" points="41.141791 71.8084815 57.5074627 44.8426813 64.2462687 64.1039672 54.619403 93.9589603 43.0671642 95.8850889"></polygon>
                    <polygon id="Path-378" fill="#841C97" points="26.7014925 80.4760602 36.3283582 61.2147743 59.4328358 32.3228454 57.5074627 44.8426813 41.141791 71.8084815"></polygon>
                    <polygon id="Path-379" fill="#721283" points="64.2462687 64.1039672 54.619403 93.9589603 109.492537 85.2913817 137.410448 50.621067 119.119403 45.8057456 106.604478 39.0642955"></polygon>
                    <polygon id="Path-380" fill="#B118CC" points="64.2462687 64.1039672 57.5074627 44.8426813 96.0149254 4.39398085 106.604478 39.0642955"></polygon>
                    <polygon id="Path-381" fill="#9A18B1" points="96.0149254 4.39398085 57.5074627 44.8426813 59.4328358 32.3228454"></polygon>
                    <polygon id="Path-402" fill="#680079" points="158.589552 80.4760602 109.492537 85.2913817 137.410448 50.621067 163.402985 55.4363885 160.514925 65.0670315"></polygon>
                    <polygon id="Path-403" fill="#9B0596" points="158.589552 80.4760602 145.11194 100.70041 109.492537 85.2913817"></polygon>
                    <polygon id="Path-404" fill="#9D0CAF" points="145.11194 100.70041 133.559701 138.259918 108.529851 132.481532 109.492537 85.2913817"></polygon>
                    <polygon id="Path-405" fill="#860E88" points="158.589552 80.4760602 173.992537 137.296854 144.451214 101.069794"></polygon>
                    <polygon id="Path-405" fill="#860E88" points="132.79454 139.107362 173.992537 137.296854 145.11194 99.7373461"></polygon>
                    <polygon id="Path-405" fill="#860E88" points="132.79454 138.902859 174.717666 136.857829 164.90152 159.557668 131.772025 178.371949"></polygon>
                    <polygon id="Path-405" fill="#860E88" points="164.365672 159.447332 148.962687 199.896033 132.597015 177.745554"></polygon>
                    <polygon id="Path-406" fill="#620B6D" points="133.559701 138.259918 132.597015 177.745554 108.529851 132.481532"></polygon>
                    <polygon id="Path-407" fill="#770D77" points="148.962687 199.896033 132.597015 177.745554 147.037313 220.120383"></polygon>
                    <polygon id="Path-413" fill="#7A1B8B" points="71.9477612 256.716826 112.380597 246.123119 102.753731 269.236662 81.5746269 279.830369"></polygon>
                    <polygon id="Path-414" fill="#6D0089" points="81.5746269 279.830369 102.753731 269.236662 98.9029851 343.392613 91.2014925 321.242134"></polygon>
                    <polygon id="Path-415" fill="#6C0584" points="102.753731 269.236662 98.9029851 343.392613 139.335821 304.870041 125.858209 271.162791 112.380597 246.123119"></polygon>
                    <polygon id="Path-416" fill="#880099" points="112.380597 246.123119 126.820896 231.677155 162.440299 252.864569 125.858209 272.125855"></polygon>
                    <polygon id="Path-417" fill="#84038D" points="125.858209 272.125855 139.335821 304.870041 167.253731 306.79617 179.768657 272.125855 162.440299 252.864569"></polygon>
                    <polygon id="Path-418" fill="#9600A1" points="162.440299 252.864569 126.820896 231.677155 158.589552 233.603283"></polygon>
                    <polygon id="Path-420" fill="#9906A0" points="162.440299 252.864569 176.880597 243.233926 179.768657 272.125855"></polygon>
                    <polygon id="Path-423" fill="#790981" points="179.768657 272.125855 195.171642 302.943912 167.253731 306.79617"></polygon>
                    <polygon id="Path-430" fill="#4F0063" points="148 34.8291536 113.406342 35.3225936 130.215941 0.509814661 152.195782 11.7532544"></polygon>
                    <polygon id="Path-430" fill="#4F0063" points="146.727145 34.8291536 168.708929 34.8291536 170.10144 19.8099261 151.402004 11.4548591"></polygon>
                    <polygon id="Path-431" fill="#41034F" points="137.410448 50.621067 163.402985 55.4363885 171.104478 47.7318741 168.216418 34.248974 113.343284 35.2120383 119.119403 45.8057456"></polygon>
                    <polygon id="Path-432" fill="#640E73" points="113.343284 35.2120383 119.119403 45.8057456 106.604478 39.0642955"></polygon>
                    <polygon id="Path-433" fill="#73098C" points="113.343284 35.2120383 106.604478 39.0642955 100.828358 20.7660739"></polygon>
                    <polygon id="Path-467" fill="#62027B" points="98.9029851 343.392613 139.335821 304.870041 109.492537 358.801642"></polygon>
                    <polygon id="Path-468" fill="#7C0697" points="109.492537 358.801642 126.820896 367.46922 139.335821 304.870041"></polygon>
                    <polygon id="Path-469" fill="#AA10B5" points="139.335821 304.870041 167.253731 306.79617 162.440299 320.27907"></polygon>
                    <polygon id="Path-471" fill="#790A81" points="173.029851 350.134063 162.440299 354.949384 162.440299 320.27907 210.574627 325.094391 191.320896 340.50342"></polygon>
                    <polygon id="Path-661" fill="#9D0DA8" points="415.626866 152.705882 409.850746 178.708618 437.768657 165.225718"></polygon>
                    <polygon id="Path-662" fill="#6E0C75" points="437.768657 165.225718 425.253731 194.117647 445.470149 176.78249"></polygon>
                    <polygon id="Path-663" fill="#850C8F" points="437.768657 165.225718 425.253731 194.117647 409.850746 178.708618"></polygon>
                    <polygon id="Path-664" fill="#5E0C64" points="409.850746 178.708618 425.253731 194.117647 380.970149 223.97264"></polygon>
                    <polygon id="Path-665" fill="#440C48" points="380.970149 223.97264 376.156716 285.608755 408.88806 252.864569"></polygon>
                    <polygon id="Path-666" fill="#580F5E" points="408.88806 252.864569 380.970149 223.97264 425.253731 194.117647"></polygon>
                    <polygon id="Path-667" fill="#440C48" points="408.88806 252.864569 425.253731 194.117647 443.544776 201.822161"></polygon>
                    <polygon id="Path-668" fill="#4B055B" points="425.253731 194.117647 445.470149 176.78249 443.544776 201.822161"></polygon>
                    <polygon id="Path-567" fill="#440055" points="381.932836 66.0300958 385.783582 43.879617 412.956672 40.4483284"></polygon>
                    <polygon id="Path-567" fill="#440055" points="381.932836 66.0300958 457.086424 93.4785249 411.450316 41.2015063"></polygon>
                    <polygon id="Path-567" fill="#440055" points="483.604759 25.9937854 455.887812 93.3214167 410.395867 40.3041654"></polygon>
                    <polygon id="Path-567" fill="#440055" points="482.694473 26.1444209 454.676255 94.3823384 470.650099 81.4276786 501.530393 12.7378544"></polygon>
                    <polygon id="Path-568" fill="#4C015D" points="381.932836 66.0300958 400.223881 97.8112175 451.246269 106.478796 456.059701 92.995896"></polygon>
                    <polygon id="Path-569" fill="#7B0A95" points="400.223881 97.8112175 381.932836 66.0300958 385.783582 91.0697674"></polygon>
                    <polygon id="Path-570" fill="#710972" points="377.119403 170.04104 415.626866 152.705882 409.850746 178.708618"></polygon>
                    <polygon id="Path-571" fill="#5F0467" points="377.119403 170.04104 415.626866 152.705882 410.813433 130.555404"></polygon>
                    <polygon id="Path-572" fill="#77098A" points="377.119403 170.04104 382.895522 120.924761 410.813433 130.555404"></polygon>
                    <polygon id="Path-573" fill="#56085A" points="377.119403 170.04104 409.850746 178.708618 366.529851 215.305062"></polygon>
                    <polygon id="Path-574" fill="#460752" points="409.850746 178.708618 366.529851 215.305062 380.970149 223.97264"></polygon>
                    <polygon id="Path-575" fill="#3E054C" points="400.223881 97.8112175 438.731343 103.589603 437.768657 165.225718 410.813433 131.518468"></polygon>
                    <polygon id="Path-576" fill="#390545" points="438.731343 103.589603 437.768657 165.225718 445.470149 176.78249 457.985075 159.447332 458.947761 124.777018 451.246269 106.478796"></polygon>
                    <polygon id="Path-577" fill="#8918A7" points="456.059701 92.995896 451.246269 106.478796 470.5 94.9220246"></polygon>
                    <polygon id="Path-578" fill="#A01EC3" points="470.5 94.9220246 456.059701 92.995896 470.5 81.4391245"></polygon>
                    <polygon id="Path-579" fill="#C024E9" points="470.5 81.4391245 474.350746 85.2913817 470.5 94.9220246"></polygon>
                    <polygon id="Path-580" fill="#8E19AA" points="500.343284 14.9876881 498.41791 27.5075239 474.350746 85.2913817 470.5 81.4391245"></polygon>
                    <polygon id="Path-599" fill="#721C87" points="410.813433 40.9904241 390.597015 33.2859097 412.738806 5.35704514"></polygon>
                    <polygon id="Path-601" fill="#5C0C71" points="410.813433 40.9904241 390.597015 33.2859097 385.783582 43.879617"></polygon>
                    <polygon id="Path-618" fill="#A71EC4" points="400.223881 97.8112175 382.895522 120.924761 386.746269 91.0697674"></polygon>
                    <polygon id="Path-620" fill="#830CA6" points="410.813433 130.555404 382.895522 120.924761 400.223881 97.8112175"></polygon>
                    <polygon id="Path-621" fill="#8A0F8E" points="382.895522 120.924761 380.007463 98.7742818 386.746269 91.0697674"></polygon>
                    <polygon id="Path-622" fill="#520065" points="410.813433 130.555404 415.626866 152.705882 437.768657 165.225718"></polygon>
                    <polygon id="Path-623" fill="#3C0649" points="414.664179 244.19699 429.104478 223.009576 456.059701 231.677155 430.067164 264.421341"></polygon>
                    <polygon id="Path-504" fill="#880099" points="126.820896 231.677155 147.037313 220.120383 158.589552 233.603283"></polygon>
                    <polygon id="Path-491" fill="#580F5E" points="309.731343 294.276334 328.022388 289.461012 336.686567 312.574555"></polygon>
                    <polygon id="Path-494" fill="#5E0D64" points="340.537313 275.978112 328.022388 289.461012 336.686567 312.574555"></polygon>
                    <polygon id="Path-495" fill="#4D0A52" points="340.537313 275.978112 336.686567 312.574555 373.268657 287.534884"></polygon>
                    <polygon id="Path-496" fill="#580F5E" points="336.686567 312.574555 373.268657 287.534884 365.567164 311.611491 354.977612 326.057456"></polygon>
                    <polygon id="Path-497" fill="#580F5E" points="373.268657 287.534884 340.537313 275.978112 347.276119 254.790698 363.641791 246.123119 376.156716 285.608755"></polygon>
                    <polygon id="Path-500" fill="#68087A" points="376.156716 285.608755 363.641791 246.123119 380.970149 223.97264"></polygon>
                    <polygon id="Path-466" fill="#440251" points="221.164179 347.24487 204.798507 389.619699 178.80597 355.912449 191.320896 340.50342"></polygon>
                    <polygon id="Path-470" fill="#9600A1" points="139.335821 304.870041 162.440299 320.27907 162.440299 354.949384 126.820896 367.46922"></polygon>
                    <polygon id="Path-473" fill="#5E0772" points="178.80597 355.912449 191.320896 340.50342 173.029851 350.134063"></polygon>
                    <polygon id="Path-474" fill="#380542" points="178.80597 355.912449 171.104478 385.767442 204.798507 389.619699"></polygon>
                    <polygon id="Path-475" fill="#460255" points="178.80597 355.912449 171.104478 385.767442 164.365672 365.543092 173.029851 350.134063"></polygon>
                    <polygon id="Path-476" fill="#33053C" points="164.365672 365.543092 171.104478 385.767442 144.149254 383.841313"></polygon>
                    <polygon id="Path-477" fill="#440351" points="144.149254 383.841313 139.335821 378.062927 144.149254 360.72777 162.440299 354.949384 173.029851 350.134063 164.365672 365.543092"></polygon>
                    <polygon id="Path-478" fill="#52065E" points="191.320896 340.50342 210.574627 325.094391 221.164179 347.24487"></polygon>
                    <polygon id="Path-533" fill="#380542" points="204.798507 389.619699 221.164179 347.24487 225.977612 364.580027"></polygon>
                    <polygon id="Path-538" fill="#440351" points="229.828358 337.614227 221.164179 347.24487 210.574627 325.094391"></polygon>
                    <g id="FrontLeg" transform="translate(162.000000, 294.000000)">
                        <polygon id="Path-525" fill="#4C0B52" points="174.686567 18.5745554 156.395522 65.7647059 192.977612 32.0574555"></polygon>
                        <polygon id="Path-526" fill="#440C48" points="156.395522 65.7647059 121.738806 59.0232558 174.686567 18.5745554"></polygon>
                        <polygon id="Path-527" fill="#580F5E" points="174.686567 18.5745554 121.738806 59.0232558 124.626866 32.0574555"></polygon>
                        <polygon id="Path-528" fill="#670D6F" points="121.738806 59.0232558 107.298507 42.6511628 124.626866 32.0574555"></polygon>
                        <polygon id="Path-529" fill="#580F5E" points="121.738806 59.0232558 107.298507 42.6511628 84.1940299 45.5403557"></polygon>
                        <polygon id="Path-530" fill="#580F5E" points="156.395522 65.7647059 137.141791 95.619699 99.5970149 119.696306 121.738806 59.0232558"></polygon>
                        <polygon id="Path-531" fill="#5E0D64" points="121.738806 59.0232558 99.5970149 119.696306 78.4179104 85.9890561"></polygon>
                        <polygon id="Path-532" fill="#74047D" points="78.4179104 85.9890561 84.1940299 45.5403557 121.738806 59.0232558"></polygon>
                        <polygon id="Path-534" fill="#800C96" points="63.9776119 70.5800274 78.4179104 85.9890561 42.7985075 95.619699"></polygon>
                        <polygon id="Path-535" fill="#580F5E" points="63.9776119 70.5800274 84.1940299 45.5403557 78.4179104 85.9890561"></polygon>
                        <polygon id="Path-539" fill="#4C0B52" points="78.4179104 85.9890561 99.5970149 119.696306 56.2761194 126.437756"></polygon>
                        <polygon id="Path-540" fill="#660773" points="78.4179104 85.9890561 56.2761194 126.437756 36.0597015 110.065663 42.7985075 95.619699"></polygon>
                        <polygon id="Path-541" fill="#5E0D64" points="36.0597015 110.065663 56.2761194 126.437756 37.9850746 136.068399"></polygon>
                        <polygon id="Path-542" fill="#4D0A52" points="36.0597015 110.065663 37.9850746 136.068399 24.5074627 115.844049"></polygon>
                        <polygon id="Path-543" fill="#440C48" points="24.5074627 115.844049 37.9850746 136.068399 11.0298507 127.400821"></polygon>
                        <polygon id="Path-544" fill="#580F5E" points="12.9552239 142.80985 11.0298507 127.400821 37.9850746 136.068399"></polygon>
                        <polygon id="Path-545" fill="#580F5E" points="12.9552239 142.80985 37.9850746 136.068399 28.358209 163.0342"></polygon>
                        <polygon id="Path-546" fill="#CF12DB" points="37.9850746 136.068399 56.2761194 152.440492 56.2761194 126.437756"></polygon>
                        <polygon id="Path-547" fill="#AA0AB5" points="28.358209 163.0342 37.9850746 136.068399 56.2761194 152.440492 37.9850746 189.036936"></polygon>
                        <polygon id="Path-548" fill="#8B0C89" points="37.9850746 189.036936 56.2761194 152.440492 59.1641791 190"></polygon>
                        <polygon id="Path-549" fill="#440C48" points="56.2761194 152.440492 100.559701 139.920657 92.858209 183.25855 59.1641791 190"></polygon>
                        <polygon id="Path-550" fill="#960FA0" points="56.2761194 152.440492 56.2761194 126.437756 99.5970149 119.696306 100.559701 139.920657"></polygon>
                        <polygon id="Path-551" fill="#820590" points="99.5970149 119.696306 100.559701 139.920657 121.738806 170.738714 128.477612 143.772914"></polygon>
                        <polygon id="Path-552" fill="#580F5E" points="100.559701 139.920657 92.858209 183.25855 121.738806 170.738714"></polygon>
                        <polygon id="Path-553" fill="#800C96" points="99.5970149 119.696306 137.141791 95.619699 138.104478 131.253078"></polygon>
                        <polygon id="Path-554" fill="#670772" points="99.5970149 119.696306 138.104478 131.253078 128.477612 143.772914"></polygon>
                        <polygon id="Path-472" fill="#BC15C7" points="0.440298507 26.2790698 5.25373134 12.7961696 33.1716418 8.94391245 48.5746269 31.0943912"></polygon>
                        <polygon id="Path-490" fill="#4D0A52" points="124.626866 32.0574555 147.731343 0.276333789 174.686567 18.5745554"></polygon>
                    </g>
                    <g id="RightLeg" transform="translate(421.000000, 52.000000)">
                        <polygon id="Path-624" fill="#721C87" points="72.6044776 116.114911 78.380597 92.0383037 82.2313433 95.8905609 86.0820896 130.560876 78.380597 146.932969"></polygon>
                        <polygon id="Path-625" fill="#AD15D2" points="37.9477612 283.688098 44.6865672 275.983584 64.9029851 292.355677 63.9402985 302.949384 48.5373134 295.24487"></polygon>
                        <polygon id="Path-626" fill="#BE24E3" points="36.0223881 307.764706 63.9402985 302.949384 41.7985075 322.21067"></polygon>
                        <polygon id="Path-627" fill="#A930C6" points="41.7985075 322.21067 78.380597 319.321477 63.9402985 302.949384"></polygon>
                        <polygon id="Path-628" fill="#270032" points="41.7985075 322.21067 50.4626866 369.400821 86.0820896 348.213406 78.380597 319.321477"></polygon>
                        <polygon id="Path-629" fill="#30043B" points="41.7985075 322.21067 50.4626866 369.400821 22.5447761 363.622435 11.9552239 330.878249"></polygon>
                        <polygon id="Path-630" fill="#5E196F" points="41.7985075 322.21067 11.9552239 330.878249 36.0223881 307.764706"></polygon>
                        <polygon id="Path-631" fill="#8F27A8" points="63.9402985 302.949384 48.5373134 295.24487 36.0223881 307.764706"></polygon>
                        <polygon id="Path-632" fill="#7D1F93" points="48.5373134 295.24487 36.0223881 307.764706 25.4328358 297.170999"></polygon>
                        <polygon id="Path-633" fill="#651878" points="36.0223881 307.764706 11.9552239 330.878249 9.06716418 307.764706 25.4328358 297.170999"></polygon>
                        <polygon id="Path-634" fill="#4B0F59" points="11.9552239 330.878249 9.06716418 307.764706 0.402985075 330.878249"></polygon>
                        <polygon id="Path-635" fill="#59036E" points="11.9552239 330.878249 0.402985075 350.139535 0.402985075 330.878249"></polygon>
                        <polygon id="Path-636" fill="#3C0649" points="11.9552239 330.878249 0.402985075 350.139535 22.5447761 363.622435"></polygon>
                        <polygon id="Path-637" fill="#32043D" points="35.0597015 179.677155 9.06716418 212.421341 35.0597015 220.125855"></polygon>
                        <polygon id="Path-638" fill="#3C0649" points="35.0597015 220.125855 15.8059701 263.463748 9.06716418 212.421341"></polygon>
                        <polygon id="Path-639" fill="#4E0A5E" points="35.0597015 220.125855 15.8059701 263.463748 23.5074627 275.983584 36.0223881 261.53762"></polygon>
                        <polygon id="Path-640" fill="#721C87" points="36.0223881 261.53762 23.5074627 275.983584 37.9477612 283.688098"></polygon>
                        <polygon id="Path-641" fill="#3C0649" points="23.5074627 275.983584 12.9179104 290.429549 15.8059701 262.500684"></polygon>
                        <polygon id="Path-642" fill="#4E0A5E" points="37.9477612 283.688098 23.5074627 275.983584 12.9179104 290.429549 9.06716418 307.764706 25.4328358 297.170999"></polygon>
                        <polygon id="Path-643" fill="#621A74" points="37.9477612 283.688098 25.4328358 297.170999 48.5373134 295.24487"></polygon>
                        <polygon id="Path-644" fill="#83149F" points="44.6865672 275.983584 37.9477612 283.688098 36.0223881 261.53762"></polygon>
                        <polygon id="Path-645" fill="#721C87" points="36.0223881 261.53762 45.6492537 249.017784 55.2761194 273.094391 44.6865672 275.983584"></polygon>
                        <polygon id="Path-646" fill="#83159E" points="44.6865672 275.983584 64.9029851 292.355677 55.2761194 273.094391"></polygon>
                        <polygon id="Path-647" fill="#9817B7" points="36.0223881 261.53762 45.6492537 249.017784 35.0597015 220.125855"></polygon>
                        <polygon id="Path-648" fill="#4E0A5E" points="35.0597015 221.088919 47.5746269 202.790698 45.6492537 249.017784"></polygon>
                        <polygon id="Path-649" fill="#460955" points="45.6492537 249.017784 47.5746269 202.790698 63.9402985 210.495212"></polygon>
                        <polygon id="Path-650" fill="#4E0A5E" points="55.2761194 248.05472 63.9402985 210.495212 45.6492537 249.017784 55.2761194 273.094391"></polygon>
                        <polygon id="Path-651" fill="#4E0A5E" points="47.5746269 202.790698 60.0895522 184.492476 63.9402985 210.495212"></polygon>
                        <polygon id="Path-652" fill="#450555" points="60.0895522 184.492476 35.0597015 179.677155 35.0597015 221.088919"></polygon>
                        <polygon id="Path-653" fill="#390647" points="60.0895522 184.492476 78.380597 146.932969 72.6044776 116.114911 35.0597015 179.677155"></polygon>
                        <polygon id="Path-654" fill="#32043E" points="72.6044776 116.114911 35.0597015 179.677155 45.6492537 119.004104"></polygon>
                        <polygon id="Path-655" fill="#520065" points="78.380597 92.0383037 54.3134328 93.9644323 45.6492537 119.004104 72.6044776 116.114911"></polygon>
                        <polygon id="Path-656" fill="#721C87" points="54.3134328 93.9644323 74.5298507 63.1463748 78.380597 92.0383037"></polygon>
                        <polygon id="Path-657" fill="#6E0C75" points="54.3134328 93.9644323 74.5298507 63.1463748 53.3507463 33.2913817 57.2014925 58.3310534"></polygon>
                        <polygon id="Path-658" fill="#480858" points="35.0597015 179.677155 45.6492537 119.004104 33.1343284 143.080711"></polygon>
                        <polygon id="Path-659" fill="#32043E" points="35.0597015 179.677155 33.1343284 143.080711 8.10447761 171.009576"></polygon>
                        <polygon id="Path-660" fill="#5D0871" points="36.9850746 107.447332 24.4701493 124.78249 21.5820896 149.822161 8.10447761 171.009576 33.1343284 143.080711 45.6492537 119.004104 54.3134328 93.9644323 57.2014925 58.3310534 53.3507463 33.2913817 49.5 42.9220246 30.2462687 54.4787962 37.9477612 71.8139535"></polygon>
                        <polygon id="Path-581" fill="#510763" points="53.3507463 33.2913817 66.8283582 0.547195622 73.5671642 27.5129959 74.5298507 63.1463748"></polygon>
                    </g>
                </g>
            </g>
        </g>
    </g>
</svg>